<?xml version="1.0" encoding="UTF-8"?>
<svg id="Layer_1" data-name="Layer 1" xmlns="http://www.w3.org/2000/svg" viewBox="0 0 1215.91 623.2">
  <defs>
    <style>
      .cls-1 {
        fill: #d0b496;
      }

      .cls-2 {
        fill: #4d75b4;
      }
    </style>
  </defs>
  <path class="cls-1" d="M405.61,462.71c-19.4,7.3-54.3,31.63-54.3,31.63,0,0,47.01-61.44,83.74-37.08,0,0-5.73-3.47-29.44,5.45Z"/>
  <path class="cls-1" d="M378.89,443.71c-7.9.86-14.36,4.61-14.36,4.61-11.56,6.21-18.64,17.84-18.64,17.84,0,0,22.78-17.5,33.41-15.99,7.75,1.1,8.34-1.71,8.01-3.05,0,0-.4-4.28-8.42-3.41Z"/>
  <path class="cls-1" d="M0,526.86s8.27-54.74,43.54-71.04c35.27-16.3,84.2,13.09,84.2,13.09,0,0-51.54-16.48-83.07,1.82,0,0-30.06,16-44.67,56.13Z"/>
  <path class="cls-1" d="M318.75,572.55c21.9,5.49,20.63,14.98,20.63,14.98.1,11.22-14.13,13.13-14.13,13.13-40.38,3.01-64.33-.3-64.33-.3-75.15-5.21-94.39-16.23-94.39-16.23-57.32-21.84-68.61-5.14-68.61-5.14l-47.93,44.22,57.33-27.47c1.38-.66,2.72-1.39,4.02-2.19,7.29-4.48,16.8-2.34,20.62-.98,1.75.63,3.55,1.12,5.36,1.52,37.41,8.1,50.25,11.88,50.25,11.88,34.87,7.01,96.33,10.82,96.33,10.82h36.62c35.62-1.9,35.39-23.03,35.39-23.03,3.21-38.7-66.13-38.58-66.13-38.58l-33.67-.32s-6.01-35.47-56.51-59.79c-49.41-23.79-93.52-17.37-93.52-17.37,115.97,7.48,138.48,85.77,138.48,85.77,0,0,50.84,3.21,74.2,9.07Z"/>
  <path class="cls-1" d="M355.15,584.37c26.95-1.65,52.52-24.1,56.57-28.22,23.68-24.07,55.21-45.18,55.21-45.18,13.03-6.61,11.22-19.04,11.22-19.04-4.61-30.86-36.07-24.45-36.07-24.45-16.43,3.21-63.55,41.28-63.55,41.28-30.65,24.85-103.79,14.83-103.79,14.83,0,0,67.85,19.84,93.51,8.62,0,0,19.99-6.15,42.47-25.62,0,0,38.17-37.1,50.2-24.88,0,0,12.83,10.42-9.7,21.98,0,0-16.95,10.29-50.42,41.62,0,0-31.26,28.9-53.04,26.88"/>
  <g>
    <path class="cls-1" d="M315.72,169.99c-4.41-1-8.93-1.47-13.46-1.47v-49.67h-93.39v49.67c-5.82.04-11.63.78-17.21,2.38-13.36,3.82-28.56,12.92,10.97,31.95,0,0-32.66-22.6,52.16-21.65,0,0,74.06-2.12,55.77,19.2,0,0,46.67-20.97,5.17-30.42ZM251.52,165.8h-33.27v-37.44h33.27v37.44ZM292.86,165.8h-33.26v-37.44h33.26v37.44Z"/>
    <path class="cls-1" d="M317.85,108.83l-62.52-61.51c-.38-.38-.97-.38-1.36-.02l-63.99,61.51c-.63.61-.2,1.67.67,1.67h126.51c.87,0,1.3-1.05.68-1.66ZM248.49,68.75c-22.5,39.05-37.15,35.87-37.15,35.87,1.83-7.66,28.43-30.22,36.34-36.58.48-.38,1.11.18.81.71Z"/>
    <path class="cls-1" d="M301.54,202.85c-50.48-23.29-94.5,0-94.5,0l-20.74,264.14c.78,2.09,16.96,7.04,16.96,7.04l14.94-258.07c-.2-12.13,9.85-8.67,9.85-8.67l-4.57,281.03c90.39,8.02,96.07-13.89,96.07-13.89l-18-271.58ZM259.9,236.62c.31-3.83,1.93-7.48,4.73-10.05,2.77-2.54,6.72-4.19,11.23-.16,2.87,2.56,4.56,6.21,4.9,10.08.51,5.8,1.19,15.86.24,19.78h-20.55s-1.3-10.39-.55-19.65ZM284.44,376.77h-28.09s-1.22-14.68-.48-25.55c.39-5.67,2.94-11.04,7.29-14.69,3.94-3.31,9.35-5.28,15.21.11,3.79,3.48,5.93,8.39,6.24,13.53.51,8.52-.08,24.66-.16,26.6Z"/>
    <path class="cls-1" d="M538.67,166.03c-122.94-3.79-193.68-11.09-258.31-23.78-.39-.08-.35-.65.04-.68l259.05-19.22c.06,0,.07.09,0,.1l-155.17,20.05c-5.99.77-12.04,2.26-18.05,1.63l172.44,21.8c.06,0,.05.1-.01.1Z"/>
    <path class="cls-1" d="M212.65,139.32s-157.81-9.28-180.9-9.67c0,0,105.55,8.32,130.08,13.83.55.12.5.91-.05.98l-127.69,16.11s126.66-6.26,178.57-11.35v-9.91Z"/>
    <path class="cls-1" d="M319.19,78.64c2.09.73,13.36.1,13.36.1,6.51.07,19.58,4.73,19.58,4.73,1.18.82-4.27,5.76-4.27,5.76l.93,1.08c7.92,5.91,14.39,0,14.39,0-5.29-8.12-.72-8.38-.72-8.38,5.02-2.15,8.72-2.95,10.29-3.22.51-.09,1.01-.24,1.51-.4,3.37-1.06,11.39-.39,11.39-.39,5.91-.57,7.25-2.42,7.25-2.42-7.97-6.78-18.81-6.89-18.81-6.89-5.4-.46-11.26,3.34-11.26,3.34-3.24,1.64,1.31-6.19,1.31-6.19-6.35-.69-8.7,5.44-8.7,5.44-1.71,2.88-11.19-.39-11.19-.39-14.79-3.1-28.54,5.88-28.54,5.88,0,0,.39.87,3.48,1.95Z"/>
    <path class="cls-1" d="M386.9,36.46c-2.68.05-6.92-12.34-6.92-12.34-8.16-19.87-29.02-24.12-29.02-24.12,0,0-2.47,2.36,4.73,11.92,0,0,9.18,8.81,11.89,19.09.37,1.41.85,2.78,1.45,4.11.68,1.51,1.6,3.34,2.5,4.56.45.61.7,1.33.7,2.08v1.08c0,.76-.48,1.23-1.07,1.23l-9.62-.02s-1.17,14.8,12.73,16.45c0,0,3.03-8.5,5.36-8.22,0,0,1.51-.82,9.59,5.83,0,0,9.18,5.69,10.69,7.81,0,0,4.52,9.8,16.17,15.08,0,0-3.84-9.39-4.59-16.52,0,0-2.33-11.58-11.79-15.9,0,0-6.25-2.74-5.43-5.88,0,0,5.65-1.87,8.21-.97.25.09.47-.18.35-.42-.44-.89-1.51-2.39-3.99-3.64-1.88-.95-3.98-1.36-6.08-1.32l-5.88.1Z"/>
  </g>
  <g>
    <path class="cls-2" d="M350.55,222.1c4.73-.7,9.01-1.22,12.87-1.58,3.85-.35,7.26-.53,10.24-.53,3.15,0,6.7.18,10.64.53,3.94.35,8.18.88,12.74,1.58v69.59h46.48v-69.59c4.73-.7,8.97-1.22,12.74-1.58,3.76-.35,7.22-.53,10.37-.53s6.7.18,10.64.53c3.94.35,8.18.88,12.74,1.58v187.49c-9.28,1.58-16.98,2.36-23.11,2.36-6.48,0-14.27-.79-23.37-2.36v-76.68h-46.48v76.68c-9.28,1.58-16.98,2.36-23.11,2.36-6.48,0-14.27-.79-23.37-2.36v-187.49Z"/>
    <path class="cls-2" d="M581.36,413.53c-11.03,0-20.75-1.67-29.15-4.99-8.4-3.32-15.45-8.09-21.14-14.31-5.69-6.21-9.98-13.66-12.87-22.32-2.89-8.67-4.33-18.25-4.33-28.75s1.44-20.44,4.33-29.28c2.89-8.84,7.18-16.41,12.87-22.71,5.69-6.3,12.74-11.16,21.14-14.57,8.4-3.41,18.12-5.12,29.15-5.12s21.01,1.71,29.41,5.12c8.4,3.41,15.45,8.27,21.14,14.57,5.69,6.3,9.98,13.88,12.87,22.71,2.89,8.84,4.33,18.6,4.33,29.28s-1.44,20.09-4.33,28.75c-2.89,8.67-7.18,16.11-12.87,22.32-5.69,6.22-12.74,10.99-21.14,14.31-8.4,3.32-18.21,4.99-29.41,4.99ZM581.36,377.55c7.7,0,13.43-2.97,17.2-8.93,3.76-5.95,5.65-14.44,5.65-25.47s-1.88-19.78-5.65-25.73c-3.77-5.95-9.5-8.93-17.2-8.93s-13.39,2.98-17.07,8.93c-3.68,5.95-5.51,14.53-5.51,25.73s1.84,19.52,5.51,25.47c3.68,5.95,9.36,8.93,17.07,8.93Z"/>
    <path class="cls-2" d="M698.74,355.76c-9.28-2.63-16.98-7.09-23.11-13.39-6.13-6.3-9.19-14.88-9.19-25.73,0-6.83,1.4-13.04,4.2-18.64,2.8-5.6,6.74-10.37,11.82-14.31,5.08-3.94,11.07-6.96,17.99-9.06,6.91-2.1,14.57-3.15,22.98-3.15,6.65,0,13.92.7,21.8,2.1,7.88,1.4,15.67,3.41,23.37,6.04-.35,5.6-1.49,11.6-3.41,17.99-1.93,6.39-4.12,12.04-6.57,16.94-4.73-1.92-10.42-3.68-17.07-5.25-6.66-1.58-12.78-2.36-18.38-2.36-8.23,0-12.34,2.28-12.34,6.83,0,1.93.96,3.41,2.89,4.46,1.92,1.05,4.11,1.93,6.56,2.63l17.07,4.46c5.25,1.4,10.02,3.11,14.31,5.12,4.29,2.02,7.96,4.6,11.03,7.75,3.06,3.15,5.47,7,7.22,11.55,1.75,4.55,2.63,10.07,2.63,16.54s-1.36,12.87-4.07,18.64c-2.72,5.78-6.74,10.77-12.08,14.97-5.34,4.2-11.91,7.53-19.69,9.98-7.79,2.45-16.77,3.68-26.92,3.68-8.4,0-16.2-.62-23.37-1.84-7.18-1.23-14.8-3.32-22.85-6.3.87-11.9,4.11-23.98,9.72-36.24,5.6,2.63,11.46,4.6,17.59,5.91,6.13,1.31,12.25,1.97,18.38,1.97,2.1,0,4.29-.09,6.57-.26,2.27-.17,4.29-.57,6.04-1.18,1.75-.61,3.19-1.44,4.33-2.49,1.14-1.05,1.71-2.45,1.71-4.2,0-2.27-1.14-3.98-3.41-5.12-2.28-1.14-4.9-2.14-7.88-3.02l-17.86-4.99Z"/>
    <path class="cls-2" d="M796.42,222.1c4.02-.53,10.2-1.27,18.51-2.23,8.31-.96,18.78-1.44,31.38-1.44,9.28,0,18.64.88,28.1,2.63,9.45,1.75,17.99,5.03,25.6,9.85,7.61,4.82,13.79,11.6,18.51,20.35,4.73,8.76,7.09,20.13,7.09,34.14,0,12.43-1.88,22.76-5.65,30.99-3.77,8.23-8.76,14.8-14.97,19.69-6.22,4.9-13.31,8.4-21.27,10.5-7.97,2.1-16.15,3.15-24.55,3.15-3.33,0-6.7-.13-10.11-.39-3.41-.26-5.82-.57-7.22-.92v61.18c-4.55.87-8.67,1.49-12.34,1.84-3.68.35-7.09.52-10.24.52-6.13,0-13.75-.79-22.85-2.36v-187.49ZM841.85,310.86c.87.35,2.36.61,4.46.79,2.1.18,4.29.26,6.57.26,7.52,0,13.66-2.19,18.38-6.56,4.73-4.37,7.09-11.03,7.09-19.96,0-5.25-.75-9.67-2.23-13.26-1.49-3.59-3.55-6.47-6.17-8.67-2.63-2.19-5.69-3.72-9.19-4.6-3.5-.87-7.18-1.31-11.03-1.31h-3.68c-1.4,0-2.8.09-4.2.26v53.04Z"/>
    <path class="cls-2" d="M1010.96,322.41c-.18-3.15-1.05-5.78-2.63-7.88s-3.59-3.72-6.04-4.86c-2.45-1.14-5.17-1.92-8.14-2.36-2.98-.43-6.04-.66-9.19-.66-4.2,0-9.1.48-14.71,1.44-5.6.96-11.38,2.49-17.33,4.59-1.58-2.97-2.93-5.69-4.07-8.14-1.14-2.45-2.01-4.94-2.63-7.48-.62-2.54-1.05-5.16-1.31-7.88-.26-2.71-.39-5.82-.39-9.32,8.4-2.8,16.76-4.9,25.08-6.3,8.31-1.4,15.8-2.1,22.45-2.1,9.1,0,17.33,1.1,24.68,3.28,7.35,2.19,13.61,5.56,18.77,10.11,5.16,4.55,9.15,10.37,11.95,17.46,2.8,7.09,4.2,15.54,4.2,25.34v76.94c-6.66,1.93-14.71,3.85-24.16,5.78-9.45,1.92-19.43,2.89-29.94,2.89-9.1,0-17.46-.83-25.08-2.49-7.61-1.66-14.14-4.33-19.56-8.01-5.43-3.68-9.68-8.53-12.74-14.57-3.07-6.04-4.6-13.43-4.6-22.19s1.84-15.67,5.51-21.27c3.68-5.6,8.4-10.07,14.18-13.39,5.78-3.32,12.17-5.65,19.17-6.96,7-1.31,13.83-1.97,20.48-1.97h16.02ZM1010.96,350.24h-14.97c-6.13,0-11.29,1.31-15.49,3.94-4.2,2.63-6.3,6.3-6.3,11.03,0,3.5.79,6.26,2.36,8.27,1.58,2.01,3.55,3.55,5.91,4.6,2.36,1.05,4.9,1.75,7.62,2.1,2.71.35,5.21.52,7.48.52,1.58,0,3.85-.17,6.83-.52,2.98-.35,5.16-.7,6.57-1.05v-28.89Z"/>
    <path class="cls-2" d="M1080.81,222.1c4.73-.7,9.01-1.22,12.87-1.58,3.85-.35,7.26-.53,10.24-.53,3.15,0,6.7.18,10.64.53,3.94.35,8.18.88,12.74,1.58v187.49c-9.28,1.58-16.98,2.36-23.11,2.36-6.48,0-14.27-.79-23.37-2.36v-187.49Z"/>
    <path class="cls-2" d="M1158.8,222.1c4.73-.7,9.01-1.22,12.87-1.58,3.85-.35,7.26-.53,10.24-.53,3.15,0,6.7.18,10.64.53,3.94.35,8.18.88,12.74,1.58v187.49c-9.28,1.58-16.98,2.36-23.11,2.36-6.48,0-14.27-.79-23.37-2.36v-187.49Z"/>
  </g>
  <g>
    <path class="cls-1" d="M540.79,456.57c3.77-.6,7.4-.89,10.88-.89,3.67,0,7.35.3,11.03.89v42.03h35.92v-42.03c3.77-.6,7.4-.89,10.88-.89,3.67,0,7.35.3,11.03.89v107.16c-3.68.6-7.3.89-10.88.89s-7.25-.3-11.03-.89v-46.35h-35.92v46.35c-3.68.6-7.3.89-10.88.89s-7.25-.3-11.03-.89v-107.16Z"/>
    <path class="cls-1" d="M641.09,504.78c2.68-6.11,6.78-10.95,12.29-14.53,5.51-3.58,12.39-5.37,20.64-5.37s15.4,1.79,20.86,5.37c5.46,3.58,9.54,8.42,12.22,14.53,2.68,6.11,4.02,12.99,4.02,20.64s-1.34,14.36-4.02,20.42c-2.68,6.06-6.76,10.86-12.22,14.38-5.47,3.53-12.42,5.29-20.86,5.29s-15.13-1.76-20.64-5.29c-5.51-3.53-9.61-8.32-12.29-14.38-2.68-6.06-4.02-12.87-4.02-20.42s1.34-14.53,4.02-20.64ZM674.03,501.43c-5.47,0-9.41,2.06-11.85,6.19-2.44,4.12-3.65,10.06-3.65,17.81s1.22,13.69,3.65,17.81c2.43,4.12,6.38,6.18,11.85,6.18s9.56-2.06,12-6.18c2.43-4.12,3.65-10.06,3.65-17.81s-1.22-13.69-3.65-17.81c-2.44-4.12-6.43-6.19-12-6.19Z"/>
    <path class="cls-1" d="M727.83,486.67c1.39-.3,2.78-.52,4.17-.67,1.39-.15,2.93-.22,4.62-.22s3.18.07,4.47.22c1.29.15,2.63.37,4.02.67.6.99,1.09,2.68,1.49,5.07.4,2.38.69,4.27.89,5.66,1.59-2.98,4.17-5.81,7.75-8.5,3.58-2.68,8.1-4.02,13.56-4.02,11.92,0,19.62,4.57,23.1,13.71,1.99-3.68,4.79-6.88,8.42-9.61,3.63-2.73,8.22-4.1,13.79-4.1,8.74,0,15.18,2.41,19.3,7.23,4.12,4.82,6.18,12.35,6.18,22.58v49.03c-3.58.6-7.1.89-10.58.89s-7-.3-10.58-.89v-43.52c0-5.36-.67-9.49-2.01-12.37-1.34-2.88-4.05-4.32-8.12-4.32-2.19,0-4.35.47-6.48,1.42-2.14.95-3.93,2.76-5.37,5.44-1.44,2.68-2.16,6.61-2.16,11.77v41.58c-3.58.6-7.1.89-10.58.89s-7-.3-10.58-.89v-43.52c0-5.36-.67-9.49-2.01-12.37-1.34-2.88-4.05-4.32-8.12-4.32-2.29,0-4.5.5-6.63,1.49-2.14.99-3.9,2.91-5.29,5.74-1.39,2.83-2.09,7.03-2.09,12.59v40.39c-3.58.6-7.1.89-10.58.89s-7-.3-10.58-.89v-77.05Z"/>
    <path class="cls-1" d="M859.05,505.15c2.83-6.16,7-11.08,12.52-14.75,5.51-3.67,12.34-5.51,20.49-5.51,7.15,0,13.26,1.62,18.33,4.84,5.07,3.23,8.92,7.63,11.55,13.19,2.63,5.57,3.95,11.82,3.95,18.78,0,1.89-.07,3.75-.22,5.59-.15,1.84-.32,3.3-.52,4.4h-49.48c.4,5.96,2.48,10.28,6.26,12.97,3.77,2.68,8.74,4.02,14.9,4.02,6.95,0,13.76-1.24,20.42-3.73,1.09,1.99,2.04,4.37,2.83,7.15.79,2.78,1.24,5.76,1.34,8.94-7.75,2.98-16.49,4.47-26.23,4.47s-17.29-1.71-23.25-5.14c-5.96-3.43-10.31-8.15-13.04-14.16-2.73-6.01-4.1-12.84-4.1-20.49s1.42-14.4,4.25-20.57ZM901.97,505.38c-2.44-2.93-5.84-4.4-10.21-4.4-4.97,0-8.74,1.39-11.33,4.17-2.58,2.78-4.12,6.71-4.62,11.77h30.1c-.2-4.77-1.52-8.62-3.95-11.55Z"/>
    <path class="cls-1" d="M942.44,545.91c-2.78-6.11-4.17-12.99-4.17-20.64s1.39-14.36,4.17-20.42c2.78-6.06,6.93-10.9,12.44-14.53,5.51-3.63,12.39-5.44,20.64-5.44,4.47,0,8.25.25,11.33.75,3.08.5,6.66,1.54,10.73,3.13,0,2.29-.3,4.84-.89,7.68s-1.54,5.54-2.83,8.12c-2.98-.99-5.59-1.66-7.82-2.01-2.24-.35-4.8-.52-7.68-.52-6.16,0-10.81,2.01-13.93,6.04-3.13,4.02-4.69,9.76-4.69,17.21,0,8.05,1.69,13.91,5.07,17.59,3.38,3.68,7.95,5.51,13.71,5.51,3.18,0,5.76-.17,7.75-.52,1.99-.35,4.67-1.12,8.05-2.31,1.19,1.99,2.18,4.3,2.98,6.93.79,2.63,1.19,5.74,1.19,9.32-3.98,1.59-7.7,2.61-11.18,3.06-3.48.45-7.1.67-10.88.67-8.55,0-15.65-1.74-21.31-5.22s-9.89-8.27-12.67-14.38Z"/>
    <path class="cls-1" d="M1072.39,516.18v44.71c-3.48,1.09-7.7,2.14-12.67,3.13-4.97.99-10.58,1.49-16.84,1.49-6.76,0-12.72-.85-17.88-2.53-5.17-1.69-9.19-4.42-12.07-8.2-2.88-3.77-4.32-8.84-4.32-15.2,0-4.77.99-8.77,2.98-12,1.99-3.23,4.62-5.81,7.9-7.75,3.28-1.94,6.9-3.33,10.88-4.17,3.97-.84,7.95-1.27,11.92-1.27,2.98,0,6.16.15,9.54.45v-1.79c0-4.77-1.49-7.87-4.47-9.31-2.98-1.44-6.96-2.16-11.92-2.16-5.27,0-10.98,1.04-17.14,3.13-1.39-2.58-2.44-5.02-3.13-7.3-.7-2.28-1.04-5.02-1.04-8.2,4.37-1.49,8.74-2.58,13.11-3.28,4.37-.69,8.44-1.04,12.22-1.04,10.33,0,18.41,2.48,24.22,7.45,5.81,4.97,8.72,12.92,8.72,23.85ZM1032.67,530.26c-2.83,1.74-4.25,4.55-4.25,8.42,0,3.38.89,5.79,2.68,7.23,1.79,1.44,3.85,2.34,6.18,2.68,2.33.35,4.4.52,6.18.52,1.49,0,2.98-.12,4.47-.37,1.49-.25,2.78-.47,3.87-.67v-19.67c-2.68-.5-5.22-.75-7.6-.75-4.87,0-8.72.87-11.55,2.61Z"/>
    <path class="cls-1" d="M1091.17,486.67c1.49-.3,2.91-.52,4.25-.67,1.34-.15,2.81-.22,4.4-.22,1.49,0,2.95.1,4.4.3,1.44.2,2.86.45,4.25.75.6.99,1.09,2.71,1.49,5.14.4,2.44.69,4.35.89,5.74,2.09-2.98,4.72-5.71,7.9-8.2,3.18-2.48,6.9-3.73,11.18-3.73,1.39,0,2.68.05,3.87.15,1.19.1,2.28.25,3.28.45.2.99.35,2.14.45,3.43.1,1.29.15,2.63.15,4.02,0,1.69-.07,3.53-.22,5.51-.15,1.99-.42,3.87-.82,5.66-1.09-.2-2.31-.3-3.65-.3h-2.46c-1.69,0-3.58.2-5.66.6-2.09.4-4.08,1.29-5.96,2.68-1.89,1.39-3.45,3.6-4.69,6.63-1.24,3.03-1.86,7.23-1.86,12.59v36.66c-1.79.3-3.58.5-5.37.6-1.79.1-3.53.15-5.22.15s-3.4-.05-5.14-.15c-1.74-.1-3.55-.3-5.44-.6v-77.2Z"/>
    <path class="cls-1" d="M1149.07,505.15c2.83-6.16,7-11.08,12.52-14.75,5.51-3.67,12.34-5.51,20.49-5.51,7.15,0,13.26,1.62,18.33,4.84,5.07,3.23,8.92,7.63,11.55,13.19,2.63,5.57,3.95,11.82,3.95,18.78,0,1.89-.07,3.75-.22,5.59-.15,1.84-.32,3.3-.52,4.4h-49.48c.4,5.96,2.48,10.28,6.26,12.97,3.77,2.68,8.74,4.02,14.9,4.02,6.95,0,13.76-1.24,20.42-3.73,1.09,1.99,2.04,4.37,2.83,7.15.79,2.78,1.24,5.76,1.34,8.94-7.75,2.98-16.49,4.47-26.23,4.47s-17.29-1.71-23.25-5.14c-5.96-3.43-10.31-8.15-13.04-14.16-2.73-6.01-4.1-12.84-4.1-20.49s1.42-14.4,4.25-20.57ZM1191.99,505.38c-2.44-2.93-5.84-4.4-10.21-4.4-4.97,0-8.74,1.39-11.33,4.17-2.58,2.78-4.12,6.71-4.62,11.77h30.1c-.2-4.77-1.52-8.62-3.95-11.55Z"/>
  </g>
</svg>